<?xml version="1.0" standalone="no"?>
<!DOCTYPE svg PUBLIC "-//W3C//DTD SVG 20010904//EN"
 "http://www.w3.org/TR/2001/REC-SVG-20010904/DTD/svg10.dtd">
<svg version="1.0" xmlns="http://www.w3.org/2000/svg"
 width="500.000000pt" height="500.000000pt" viewBox="0 0 500.000000 500.000000"
 preserveAspectRatio="xMidYMid meet">
<metadata>
Created by potrace 1.14, written by Peter Selinger 2001-2017
</metadata>
<g transform="translate(0.000000,500.000000) scale(0.100000,-0.100000)"
fill="#000000" stroke="none">
<path d="M0 2500 l0 -2500 2500 0 2500 0 0 2500 0 2500 -2500 0 -2500 0 0
-2500z m2955 2113 c73 -18 159 -63 216 -111 58 -49 131 -165 164 -259 16 -43
31 -82 35 -86 4 -5 35 -1 69 8 208 54 358 31 496 -75 l51 -39 1 -66 c1 -36 -1
-65 -3 -65 -3 0 -16 12 -30 28 -20 23 -26 25 -34 12 -5 -8 -118 -202 -250
-430 -132 -228 -251 -425 -265 -437 -25 -22 -33 -23 -232 -23 l-206 0 -42 -39
c-46 -42 -111 -66 -148 -55 -35 10 -86 65 -97 103 -20 73 22 147 97 172 46 15
108 -8 152 -56 l31 -35 138 -2 c178 -3 208 0 243 17 40 21 62 54 194 289 64
115 155 272 202 348 105 176 124 213 117 231 -9 24 -96 56 -170 63 -88 8 -231
-18 -297 -54 -53 -28 -54 -30 -210 -308 -53 -94 -106 -179 -118 -190 -20 -18
-35 -19 -210 -16 -254 5 -276 2 -332 -54 -41 -40 -50 -44 -93 -44 -113 0 -179
95 -135 194 24 55 70 86 126 86 44 0 98 -28 114 -58 18 -34 66 -42 258 -42
144 0 190 3 213 15 22 11 59 68 152 232 69 120 127 226 131 236 20 53 -60 224
-145 308 -78 79 -163 118 -278 129 -67 6 -106 5 -157 -6 -37 -8 -99 -22 -138
-30 -85 -19 -158 -13 -273 23 -68 21 -96 25 -158 21 -41 -3 -77 -8 -80 -11 -7
-7 180 -334 206 -361 16 -17 38 -20 173 -24 85 -3 171 -2 191 2 22 4 56 24 87
51 41 37 56 45 90 45 94 0 167 -88 145 -174 -25 -100 -165 -139 -233 -65 -50
55 -75 60 -284 58 -152 -1 -194 2 -212 14 -12 8 -67 94 -122 192 -115 205
-129 225 -157 225 -54 0 -176 -126 -221 -230 -47 -106 -59 -157 -46 -182 42
-83 446 -777 462 -795 11 -12 34 -25 51 -29 81 -17 126 -68 126 -142 0 -55
-23 -94 -70 -121 -47 -26 -96 -27 -137 -1 -62 37 -74 77 -59 200 l6 55 -88
150 c-64 110 -95 154 -116 164 -23 11 -67 12 -224 6 l-195 -7 -43 -40 c-51
-47 -90 -60 -141 -46 -140 37 -148 218 -12 272 49 20 108 8 136 -27 44 -57 64
-62 255 -65 144 -3 178 -1 178 10 0 7 -25 54 -56 103 -30 50 -71 120 -89 156
-58 113 -116 149 -274 169 -185 24 -355 -69 -438 -238 -37 -74 -38 -79 -38
-189 0 -61 -4 -116 -10 -122 -5 -5 -39 -16 -75 -25 -97 -22 -137 -42 -185 -92
-50 -51 -85 -133 -85 -199 0 -82 -40 -75 447 -75 l435 0 37 39 c43 47 70 61
111 61 63 0 123 -50 138 -115 11 -51 0 -90 -34 -126 -61 -63 -144 -59 -213 11
l-39 40 -431 0 c-238 0 -432 -4 -435 -9 -16 -26 60 -192 117 -257 76 -87 -98
-78 1702 -84 l1600 -5 0 -40 0 -40 -1600 -3 c-1804 -3 -1645 -10 -1738 77 -62
58 -130 173 -162 274 -20 63 -25 99 -25 186 0 236 86 371 275 431 57 18 75 37
75 80 0 56 35 181 71 251 42 84 137 178 221 217 120 58 243 64 397 22 41 -12
76 -19 78 -16 3 2 17 41 33 85 66 191 207 332 375 376 92 24 234 20 351 -10
119 -30 169 -31 254 -4 130 41 238 44 365 12z m1004 -1247 l28 -15 0 -174 0
-175 -31 46 c-26 38 -41 49 -86 63 -60 19 -85 43 -99 95 -30 110 89 211 188
160z m-969 -935 l85 -6 1 -42 c0 -40 -2 -43 -27 -43 -15 0 -38 -4 -51 -9 -24
-9 -288 -248 -288 -261 0 -4 71 -15 158 -25 215 -25 206 -21 207 -77 1 -39 -1
-45 -15 -38 -8 4 -109 18 -223 29 -248 26 -222 34 -366 -113 -73 -75 -92 -100
-86 -113 5 -10 10 -36 13 -58 2 -22 10 -48 17 -58 6 -9 93 -68 191 -129 160
-101 184 -112 225 -113 30 0 54 6 66 17 10 9 54 80 98 157 l80 140 3 -82 c3
-83 3 -83 -45 -168 -59 -104 -64 -151 -19 -198 16 -17 37 -33 46 -36 12 -4 16
-16 14 -53 -1 -26 -2 -48 -3 -49 0 -2 -29 13 -64 32 -74 41 -106 44 -134 12
-12 -12 -75 -119 -142 -238 -126 -225 -134 -249 -111 -316 16 -45 60 -65 159
-70 96 -6 187 12 257 51 l40 22 -2 -45 c-1 -25 -2 -49 -3 -52 -2 -12 -96 -47
-159 -59 -60 -12 -168 -10 -252 5 -28 5 -42 1 -70 -19 -100 -72 -163 -79 -256
-26 -55 31 -62 32 -155 31 -254 -4 -424 97 -544 320 -21 40 -47 70 -81 94
l-49 36 -125 -7 c-194 -10 -294 21 -399 125 -69 68 -104 125 -146 241 -40 111
-84 171 -193 263 -147 123 -182 196 -182 377 0 130 23 230 77 333 45 85 151
197 203 214 36 12 2076 15 2250 4z"/>
<path d="M876 2328 c4 -7 77 -106 162 -221 99 -133 162 -209 176 -212 11 -2
59 -6 106 -10 l85 -5 184 160 c101 89 218 192 260 230 l76 70 -528 0 c-420 0
-527 -3 -521 -12z"/>
<path d="M2338 2333 c-189 -3 -208 -5 -208 -21 0 -43 102 -447 117 -464 18
-20 45 -23 74 -8 22 12 522 478 527 491 2 5 -62 8 -150 7 -84 -2 -246 -4 -360
-5z"/>
<path d="M690 2263 c-46 -52 -87 -127 -116 -213 -26 -75 -25 -233 0 -309 20
-59 81 -133 130 -158 25 -13 37 -13 82 -3 38 9 60 10 83 2 36 -13 70 -5 141
34 57 31 67 45 86 118 7 28 15 60 19 71 5 16 -33 75 -170 260 -102 140 -183
241 -194 243 -12 2 -34 -14 -61 -45z"/>
<path d="M1749 2052 c-151 -131 -280 -246 -287 -254 -11 -13 -9 -19 12 -35 21
-17 48 -21 183 -26 87 -4 201 -7 254 -7 91 0 98 2 132 28 19 16 47 43 62 60
l26 31 -47 213 c-25 117 -50 216 -53 221 -4 4 -131 -100 -282 -231z"/>
<path d="M1481 1631 c-8 -6 -11 -18 -8 -32 6 -25 306 -329 323 -329 11 0 202
211 221 244 17 29 16 77 -3 104 -15 22 -18 22 -267 22 -139 0 -258 -4 -266 -9z"/>
<path d="M1100 1550 c-86 -24 -174 -102 -186 -166 -15 -80 54 -242 138 -320
74 -69 145 -98 243 -99 121 0 146 8 207 69 43 42 62 54 98 60 46 7 102 43 120
77 9 16 3 28 -42 75 -29 31 -102 102 -162 158 l-109 101 -92 0 c-75 0 -97 3
-113 18 -26 23 -71 35 -102 27z"/>
<path d="M2337 1502 c-10 -10 -17 -26 -17 -36 0 -10 34 -169 76 -354 82 -364
93 -394 134 -357 37 33 253 423 253 456 0 58 -19 73 -302 246 -57 35 -109 63
-116 63 -6 0 -19 -8 -28 -18z"/>
<path d="M2103 1455 c-46 -33 -213 -233 -213 -257 0 -17 55 -75 221 -233 204
-195 252 -235 264 -224 4 5 -138 659 -150 691 -4 10 -14 19 -23 22 -55 15 -79
15 -99 1z"/>
<path d="M1771 1085 c-42 -45 -44 -54 -25 -113 2 -7 -5 -36 -16 -65 -27 -69
-26 -80 14 -151 43 -76 123 -153 196 -189 64 -31 190 -52 253 -43 42 7 44 8
56 54 27 104 42 79 -178 291 -111 107 -210 209 -222 227 -11 19 -24 34 -29 34
-4 0 -26 -20 -49 -45z"/>
</g>
</svg>
